# xmcd
#
# Track frame offsets: 
#        150
#        12877
#        27329
#        46957
#        62772
#        77460
#        92386
#        105814
#        122582
#        137748
#        154361
#        169231
#        184613
#        202823
#        218285
#        234896
#        250422
#        266492
#
# Disc length: 3774 seconds
#
# Revision: 0
# Processed by: cddbd v1.5.2PL0 Copyright (c) Steve Scherf et al.
# Submitted via: ExactAudioCopy v0.95b4
#
DISCID=d70ebc12
DTITLE=Bellamy Brothers - Dancin' Cowboys
DYEAR=2006
DGENRE=Country
TTITLE0=Let Your Love Flow
TTITLE1=If I Said You Had A Beautiful Body (Would You Hold It Against 
TTITLE1=Me)
TTITLE2=You Ain't Just Whistlin' Dixie
TTITLE3=Sugar Daddy
TTITLE4=Dancin' Cowboys
TTITLE5=Lovers Live Longer
TTITLE6=Do You Love As Good As You Look
TTITLE7=For All The Wrong Reasons
TTITLE8=Redneck Girl
TTITLE9=Whem I'm Away From You
TTITLE10=I Love Her Mind
TTITLE11=I Need More Of You
TTITLE12=Old Hippie
TTITLE13=Lie To You For Your Love
TTITLE14=Feelin' The Feelin'
TTITLE15=Kids Of The Baby Boom
TTITLE16=Crazy From The Heart
TTITLE17=Let Your Love Flow (1998 Reggae Mix)
EXTD=
EXTT0=
EXTT1=
EXTT2=
EXTT3=
EXTT4=
EXTT5=
EXTT6=
EXTT7=
EXTT8=
EXTT9=
EXTT10=
EXTT11=
EXTT12=
EXTT13=
EXTT14=
EXTT15=
EXTT16=
EXTT17=
PLAYORDER=
